<?xml version="1.0" encoding="UTF-8" standalone="no"?>
<svg width="25px" height="25px" viewBox="0 0 25 25" version="1.1" xmlns="http://www.w3.org/2000/svg"
	 xmlns:xlink="http://www.w3.org/1999/xlink">
	<!-- Generator: Sketch 40.3 (33839) - http://www.bohemiancoding.com/sketch -->
	<title>Combo</title>
	<desc>Created with Sketch.</desc>
	<defs></defs>
	<g id="combo" stroke="none" stroke-width="1" fill="#333333" fill-rule="">
		<path d="M1,25 C0.448,25 0,24.551 0,24 L0,18 C0,17.449 0.448,17 1,17 L3,17 C3.551,17 4,17.449 4,18 L4,24 C4,24.551 3.551,25 3,25 L1,25 L1,25 Z"
			  id="Shape"></path>
		<path d="M6,25 C5.448,25 5,24.551 5,24 L5,16 C5,15.449 5.448,15 6,15 L8,15 C8.551,15 9,15.449 9,16 L9,24 C9,24.551 8.551,25 8,25 L6,25 L6,25 Z"
			  id="Shape"></path>
		<path d="M11,25 C10.448,25 10,24.551 10,24 L10,13 C10,12.449 10.448,12 11,12 L13,12 C13.551,12 14,12.449 14,13 L14,24 C14,24.551 13.551,25 13,25 L11,25 L11,25 Z"
			  id="Shape"></path>
		<path d="M16,25 C15.448,25 15,24.551 15,24 L15,15 C15,14.449 15.448,14 16,14 L18,14 C18.551,14 19,14.449 19,15 L19,24 C19,24.551 18.551,25 18,25 L16,25 L16,25 Z"
			  id="Shape"></path>
		<path d="M21,25 C20.448,25 20,24.551 20,24 L20,11 C20,10.449 20.448,10 21,10 L23,10 C23.551,10 24,10.449 24,11 L24,24 C24,24.551 23.551,25 23,25 L21,25 L21,25 Z"
			  id="Shape"></path>
		<polygon id="Shape"
				 points="7.37064937 9.72728394 7.46474109 9.66309512 12.4967411 5.67709512 11.846198 5.8350764 16.879198 6.8210764 17.2499667 6.89371258 17.5416011 6.65351514 22.4516011 2.60951514 21.4343989 1.37448486 16.5243989 5.41848486 17.186802 5.2509236 12.153802 4.2649236 11.7921419 4.19407186 11.5032589 4.42290488 6.47125891 8.40890488 6.56535063 8.34471606 1.56935063 11.2547161 2.37464937 12.6372839"></polygon>
		<circle id="Oval" cx="22" cy="2" r="1.813" fill="#333333"></circle>
		<circle id="Oval" cx="17" cy="6" r="1.813" fill="#333333"></circle>
		<circle id="Oval" cx="12" cy="5" r="1.813" fill="#333333"></circle>
		<circle id="Oval" cx="7" cy="9" r="1.813" fill="#333333"></circle>
		<circle id="Oval" cx="2" cy="12" r="1.813" fill="#333333"></circle>
	</g>
</svg>